<?xml version="1.0" encoding="UTF-8" standalone="no"?>
<svg xmlns="http://www.w3.org/2000/svg" version="1.1" viewBox="0 0 380 242.59348" height="242.59348" width="380">
<path fill="#0473bd" d="m 40,104.95532 40.83531,0 0,49.73554 c 0,11.14354 27.83148,11.51742 34.14189,11.51742 6.31954,0 41.58308,-0.383 41.58308,-14.49936 l 0,-111.70892 151.44081,0 c 27.10196,0 31.96243,38.66496 31.96243,48.63213 0,9.51122 -4.48659,51.96973 -29.72825,51.96973 l -15.74868,0 45.51341,57.29528 -51.09429,0 -74.0197,-92.94182 76.78278,0 c 8.90024,0 9.29236,-12.24695 9.29236,-14.83677 0,-2.60806 -0.39175,-13.37772 -8.92759,-13.37772 l -95.37662,0 0,82.42751 c 0,36.35783 -57.17673,43.42513 -78.69779,43.42513 -29.71002,0 -77.95915,-10.00365 -77.95915,-40.82619 l 0,-56.81196"/>
</svg>